<?xml version="1.0" encoding="utf-8"?>
<!-- Generator: Adobe Illustrator 24.1.1, SVG Export Plug-In . SVG Version: 6.00 Build 0)  -->
<svg version="1.0" id="Layer_1" xmlns="http://www.w3.org/2000/svg" xmlns:xlink="http://www.w3.org/1999/xlink" x="0px" y="0px"
	 viewBox="0 0 40 40" style="enable-background:new 0 0 40 40;" xml:space="preserve">
<style type="text/css">
	.st0{fill:none;}
</style>
<g>
	<g>
		<path d="M23.61,9.58c-0.54,0-1.55-0.05-3.04-0.15c-0.39-0.03-0.59-0.05-0.6-0.05v0.31c0.76,0.13,1.39,0.39,1.88,0.79
			c0.49,0.41,0.81,0.92,0.97,1.52c0.16,0.64,0.24,1.55,0.24,2.73v7.09L8.69,9.58H6.68l17.76,15.14v-9.51V14.3V9.55
			C24.07,9.57,23.79,9.58,23.61,9.58z"/>
		<path d="M1.69,9.37v0.31c1.17,0.39,2.61,1.31,4.32,2.77l1.23,1.04l0.02,8.92c0,1.77-0.18,3-0.53,3.69c-0.35,0.7-1.02,1.16-2,1.38
			v0.31c1.4-0.14,2.45-0.21,3.14-0.21c0.62,0,1.78,0.07,3.5,0.21v-0.31c-0.96-0.21-1.66-0.64-2.1-1.32s-0.67-1.87-0.67-3.61v-7.95
			L24.09,27.8h0.34v-1.4L4.75,9.58L1.69,9.37z"/>
	</g>
	<g>
		<path class="st0" d="M30.97,16.79c0.59-0.59,0.89-1.45,0.89-2.56c0-1.15-0.32-2.03-0.96-2.63c-0.64-0.59-1.4-0.89-2.29-0.89
			c-0.49,0-0.88,0.12-1.18,0.36c-0.21,0.62-0.31,1.67-0.31,3.18v3.44h1.32C29.54,17.68,30.38,17.38,30.97,16.79z"/>
		<path class="st0" d="M31.4,19.23c-0.58-0.23-1.44-0.34-2.56-0.34h-1.71v3.08c0,2.15,0.23,3.52,0.7,4.08c0.4,0.31,1,0.46,1.79,0.46
			c1.33,0,2.28-0.39,2.85-1.16c0.55-0.77,0.82-1.68,0.82-2.72c0-0.83-0.18-1.54-0.53-2.14C32.4,19.9,31.95,19.47,31.4,19.23z"/>
		<path d="M34.07,11.53c0.39,0.79,0.58,1.67,0.58,2.67c0,1.25-0.35,2.34-1.04,3.25c0.72-0.23,1.33-0.68,1.83-1.37
			c0.5-0.71,0.75-1.46,0.75-2.26c0-0.9-0.3-1.72-0.91-2.46c-0.6-0.73-1.47-1.21-2.6-1.45C33.21,10.18,33.67,10.72,34.07,11.53z"/>
		<path d="M34.39,18.4c1.09,1.14,1.64,2.63,1.64,4.48c0,1.72-0.52,3.13-1.57,4.24c0.91-0.26,1.67-0.8,2.27-1.61
			c0.6-0.81,0.91-1.73,0.91-2.77C37.64,20.63,36.56,19.18,34.39,18.4z"/>
		<path d="M31.08,17.99c1.53-0.77,2.29-2.04,2.29-3.79c0-1.4-0.42-2.56-1.26-3.47c-0.86-0.9-2.01-1.35-3.45-1.35l-2.92,0.21v18.01
			c0.41,0,0.97,0.03,1.67,0.08c0.79,0.08,1.51,0.12,2.19,0.12c1.82,0,3.14-0.5,3.96-1.5c0.81-1,1.21-2.17,1.21-3.5
			C34.77,20.15,33.54,18.55,31.08,17.99z M27.13,14.24c0-1.5,0.1-2.56,0.31-3.18c0.3-0.24,0.69-0.36,1.18-0.36
			c0.89,0,1.65,0.3,2.29,0.89c0.64,0.6,0.96,1.48,0.96,2.63c0,1.12-0.3,1.97-0.89,2.56c-0.59,0.59-1.44,0.89-2.53,0.89h-1.32V14.24z
			 M32.48,25.35c-0.57,0.78-1.52,1.16-2.85,1.16c-0.8,0-1.4-0.15-1.79-0.46c-0.47-0.57-0.7-1.93-0.7-4.08v-3.08h1.71
			c1.13,0,1.98,0.11,2.56,0.34c0.55,0.24,1,0.66,1.37,1.26c0.35,0.59,0.53,1.3,0.53,2.14C33.3,23.67,33.02,24.58,32.48,25.35z"/>
	</g>
</g>
</svg>
