<?xml version="1.0" encoding="utf-8"?>
<!-- Generator: Adobe Illustrator 24.1.1, SVG Export Plug-In . SVG Version: 6.00 Build 0)  -->
<svg version="1.0" id="Layer_1" xmlns="http://www.w3.org/2000/svg" xmlns:xlink="http://www.w3.org/1999/xlink" x="0px" y="0px"
	 viewBox="0 0 150 50" style="enable-background:new 0 0 150 50;" xml:space="preserve">
<style type="text/css">
	.st0{fill:#878A8F;}
</style>
<g>
	<path d="M15.62,8.68v13.3H13.1l-6.63-8.07v8.07H3.43V8.68h2.55l6.61,8.07V8.68H15.62z"/>
	<path d="M17.81,16.87c0-3.08,2.37-5.26,5.62-5.26s5.6,2.18,5.6,5.26s-2.36,5.26-5.6,5.26S17.81,19.95,17.81,16.87z M26.04,16.87
		c0-1.77-1.12-2.83-2.6-2.83c-1.48,0-2.62,1.06-2.62,2.83s1.14,2.83,2.62,2.83C24.92,19.7,26.04,18.64,26.04,16.87z"/>
	<path d="M37.36,11.61v2.74c-0.25-0.02-0.44-0.04-0.67-0.04c-1.63,0-2.72,0.89-2.72,2.85v4.83h-2.96V11.76h2.83v1.35
		C34.57,12.12,35.78,11.61,37.36,11.61z"/>
	<path d="M45.47,11.61v2.74c-0.25-0.02-0.44-0.04-0.67-0.04c-1.63,0-2.72,0.89-2.72,2.85v4.83h-2.96V11.76h2.83v1.35
		C42.68,12.12,43.9,11.61,45.47,11.61z"/>
	<path d="M46.88,8.68c0-0.93,0.74-1.65,1.84-1.65s1.84,0.68,1.84,1.6c0,0.99-0.74,1.71-1.84,1.71S46.88,9.61,46.88,8.68z
		 M47.24,11.76h2.96v10.22h-2.96V11.76z"/>
	<path d="M52.2,16.87c0-3.08,2.37-5.26,5.7-5.26c2.15,0,3.84,0.93,4.58,2.6l-2.3,1.23c-0.55-0.97-1.37-1.41-2.3-1.41
		c-1.5,0-2.68,1.04-2.68,2.83s1.18,2.83,2.68,2.83c0.93,0,1.75-0.42,2.3-1.41l2.3,1.25c-0.74,1.63-2.43,2.58-4.58,2.58
		C54.57,22.13,52.2,19.95,52.2,16.87z"/>
	<path d="M63.3,16.87c0-3.08,2.37-5.26,5.62-5.26c3.25,0,5.6,2.18,5.6,5.26s-2.36,5.26-5.6,5.26C65.67,22.13,63.3,19.95,63.3,16.87z
		 M71.52,16.87c0-1.77-1.12-2.83-2.6-2.83c-1.48,0-2.62,1.06-2.62,2.83s1.14,2.83,2.62,2.83C70.4,19.7,71.52,18.64,71.52,16.87z"/>
	<path d="M94.28,18.35c0,2.3-1.82,3.63-5.32,3.63h-6.88V8.68h6.5c3.32,0,5.03,1.39,5.03,3.46c0,1.33-0.68,2.36-1.77,2.93
		C93.33,15.54,94.28,16.68,94.28,18.35z M85.15,11v3.13h3.06c1.5,0,2.32-0.53,2.32-1.58c0-1.04-0.82-1.56-2.32-1.56H85.15z
		 M91.19,18.03c0-1.12-0.86-1.65-2.45-1.65h-3.59v3.29h3.59C90.33,19.66,91.19,19.17,91.19,18.03z"/>
	<path d="M96.05,8.68c0-0.93,0.74-1.65,1.84-1.65s1.84,0.68,1.84,1.6c0,0.99-0.74,1.71-1.84,1.71S96.05,9.61,96.05,8.68z
		 M96.41,11.76h2.96v10.22h-2.96V11.76z"/>
	<path d="M111.17,16.15v5.83h-2.77v-1.27c-0.55,0.93-1.61,1.42-3.12,1.42c-2.39,0-3.82-1.33-3.82-3.1c0-1.81,1.27-3.06,4.39-3.06
		h2.36c0-1.27-0.76-2.01-2.36-2.01c-1.08,0-2.2,0.36-2.94,0.95l-1.06-2.07c1.12-0.8,2.77-1.23,4.41-1.23
		C109.37,11.61,111.17,13.05,111.17,16.15z M108.21,18.75v-1.04h-2.03c-1.39,0-1.82,0.51-1.82,1.2c0,0.74,0.63,1.23,1.67,1.23
		C107.01,20.14,107.87,19.68,108.21,18.75z"/>
	<path d="M112.87,21.03l0.99-2.13c0.91,0.59,2.3,0.99,3.55,0.99c1.37,0,1.88-0.36,1.88-0.93c0-1.67-6.17,0.04-6.17-4.05
		c0-1.94,1.75-3.31,4.73-3.31c1.41,0,2.96,0.32,3.93,0.89l-0.99,2.11c-1.01-0.57-2.01-0.76-2.94-0.76c-1.33,0-1.9,0.42-1.9,0.95
		c0,1.75,6.17,0.06,6.17,4.08c0,1.9-1.77,3.25-4.83,3.25C115.56,22.13,113.82,21.66,112.87,21.03z"/>
	<path d="M123.18,16.87c0-3.08,2.38-5.26,5.62-5.26c3.25,0,5.6,2.18,5.6,5.26s-2.36,5.26-5.6,5.26
		C125.56,22.13,123.18,19.95,123.18,16.87z M131.41,16.87c0-1.77-1.12-2.83-2.6-2.83c-1.48,0-2.62,1.06-2.62,2.83
		s1.14,2.83,2.62,2.83C130.29,19.7,131.41,18.64,131.41,16.87z"/>
	<path d="M146.84,16.13v5.85h-2.96v-5.4c0-1.65-0.76-2.41-2.07-2.41c-1.42,0-2.45,0.87-2.45,2.75v5.05h-2.96V11.76h2.83v1.2
		c0.8-0.87,2-1.35,3.38-1.35C145.01,11.61,146.84,13.01,146.84,16.13z"/>
</g>
<g>
	<path class="st0" d="M14.96,30.35l-2.55,7.7h-1.52l-1.9-5.7l-1.94,5.7H5.52l-2.55-7.7h1.49l1.91,5.85l1.99-5.85h1.32l1.95,5.89
		l1.97-5.89H14.96z"/>
	<path class="st0" d="M25.35,36.85v1.2h-5.78v-7.7h5.62v1.2h-4.19v2h3.72v1.18h-3.72v2.12H25.35z"/>
	<path class="st0" d="M37.24,35.96c0,1.32-1.03,2.09-3.01,2.09H30.4v-7.7h3.61c1.85,0,2.84,0.78,2.84,2c0,0.79-0.4,1.38-0.99,1.69
		C36.68,34.31,37.24,34.96,37.24,35.96z M31.83,31.47v2.12h2.02c0.99,0,1.55-0.35,1.55-1.06c0-0.71-0.56-1.07-1.55-1.07H31.83z
		 M35.8,35.81c0-0.77-0.58-1.11-1.66-1.11h-2.31v2.22h2.31C35.22,36.92,35.8,36.58,35.8,35.81z"/>
	<path class="st0" d="M48.71,30.35h3.37c2.5,0,4.2,1.54,4.2,3.85s-1.71,3.85-4.2,3.85h-3.37V30.35z M52.02,36.84
		c1.72,0,2.83-1.04,2.83-2.64c0-1.59-1.11-2.64-2.83-2.64h-1.87v5.28H52.02z"/>
	<path class="st0" d="M67.03,36.85v1.2h-5.78v-7.7h5.62v1.2h-4.19v2h3.72v1.18h-3.72v2.12H67.03z"/>
	<path class="st0" d="M79.01,30.35l-3.36,7.7h-1.41l-3.37-7.7h1.55l2.56,5.94l2.58-5.94H79.01z"/>
	<path class="st0" d="M89.05,36.85v1.2h-5.78v-7.7h5.62v1.2h-4.19v2h3.72v1.18h-3.72v2.12H89.05z"/>
	<path class="st0" d="M94.1,30.35h1.43v6.49h4.03v1.21H94.1V30.35z"/>
	<path class="st0" d="M103.45,34.2c0-2.28,1.76-3.96,4.15-3.96c2.39,0,4.15,1.67,4.15,3.96s-1.76,3.96-4.15,3.96
		C105.21,38.16,103.45,36.47,103.45,34.2z M110.3,34.2c0-1.57-1.16-2.71-2.71-2.71c-1.55,0-2.71,1.13-2.71,2.71s1.16,2.71,2.71,2.71
		C109.15,36.9,110.3,35.77,110.3,34.2z"/>
	<path class="st0" d="M123.16,33.08c0,1.69-1.25,2.74-3.28,2.74h-1.74v2.22h-1.43v-7.7h3.17C121.91,30.35,123.16,31.38,123.16,33.08
		z M121.72,33.08c0-0.97-0.65-1.53-1.9-1.53h-1.67v3.06h1.67C121.07,34.61,121.72,34.05,121.72,33.08z"/>
	<path class="st0" d="M133.82,36.85v1.2h-5.78v-7.7h5.62v1.2h-4.19v2h3.72v1.18h-3.72v2.12H133.82z"/>
	<path class="st0" d="M143.91,38.05l-1.57-2.25c-0.1,0.01-0.2,0.01-0.3,0.01h-1.74v2.24h-1.43v-7.7h3.17c2.02,0,3.28,1.03,3.28,2.74
		c0,1.17-0.59,2.02-1.64,2.43l1.77,2.53H143.91z M141.97,31.56h-1.67v3.07h1.67c1.25,0,1.9-0.57,1.9-1.54
		C143.88,32.12,143.23,31.56,141.97,31.56z"/>
</g>
<g>
</g>
<g>
</g>
<g>
</g>
<g>
</g>
<g>
</g>
</svg>
